# Blender v2.92.0 OBJ File: 'mediHouse.blend'
# www.blender.org
mtllib mediHouse.mtl
o Cube
v 0.840061 0.813128 -5.621185
v 0.840061 -0.813128 -5.621185
v 0.840061 0.813128 2.370570
v 0.840061 -0.813128 2.370570
v -0.840061 0.813128 -5.621185
v -0.840061 -0.813128 -5.621185
v -0.840061 0.813128 2.370570
v -0.840061 -0.813128 2.370570
v -0.840061 -0.813128 4.053404
v -0.840061 0.813128 4.053404
v 0.840061 0.813128 4.053404
v 0.840061 -0.813128 4.053404
v 2.436754 0.295070 2.370570
v 2.436754 -0.813128 2.370570
v 2.436754 0.295070 4.053404
v 2.436754 -0.813128 4.053404
v 2.431857 0.813128 -5.621185
v 2.431857 -0.813128 -5.621185
v 2.431857 0.813128 2.370570
v 2.431857 -0.813128 2.370570
v 3.992173 0.295070 2.370570
v 3.992173 -0.813128 2.370570
v 3.992173 0.295070 4.053404
v 3.992173 -0.813128 4.053404
v 2.436754 -0.819511 -0.395280
v 2.436754 -0.813128 -0.395280
v 3.992173 -0.819511 -0.395280
v 3.992173 -0.813128 -0.395280
v -2.494723 -0.813128 -5.621185
v -2.494723 -0.813128 2.370570
v -2.494723 0.813128 2.370570
v -2.494723 0.813128 -5.621185
v 0.840061 3.327971 2.370570
v -0.840061 3.327971 2.370570
v 0.840061 3.327971 -5.621185
v -0.840061 3.327971 -5.621185
v 2.431857 3.327971 -5.621185
v 2.431857 3.327971 2.370570
v -2.494723 3.327971 2.370570
v -2.494723 3.327971 -5.621185
v 0.840061 6.733511 2.370570
v -0.840061 6.733511 2.370570
v 0.840061 6.733511 -5.621185
v -0.840061 6.733511 -5.621185
v 0.839543 6.733511 -5.621185
v 0.839543 6.733511 2.370570
v -0.866982 6.733511 2.370570
v -0.866982 6.733511 -5.621185
v 0.050828 8.104689 2.370570
v 0.012495 8.104689 2.370570
v 0.050828 8.104689 -5.621185
v 0.012495 8.104689 -5.621185
v 2.616178 3.414153 -5.621185
v 2.616178 3.414153 2.370570
v 1.023864 6.819693 -5.621185
v 1.023864 6.819693 2.370570
v 1.002201 6.826837 -5.621185
v 1.002201 6.826837 2.370570
v 0.212967 8.198014 -5.621185
v 0.212967 8.198014 2.370570
v -1.017777 6.805586 -5.621185
v -2.645518 3.400046 -5.621185
v -2.645518 3.400046 2.370570
v -1.017777 6.805586 2.370570
v -1.002642 6.834599 2.370570
v -1.002642 6.834599 -5.621185
v -0.150086 8.205776 2.370570
v -0.150086 8.205776 -5.621185
v 2.431857 3.327971 2.685024
v 0.839543 6.733511 2.685024
v 2.616178 3.414153 2.685024
v 1.023864 6.819693 2.685024
v 0.840061 6.733511 2.675040
v 0.050828 8.104689 2.675040
v 1.002201 6.826837 2.675040
v 0.212967 8.198014 2.675040
v -0.840061 6.733511 2.670031
v 0.012495 8.104689 2.670031
v -1.002642 6.834599 2.670031
v -0.150086 8.205776 2.670031
v -2.494723 3.327971 2.680910
v -0.866982 6.733511 2.680910
v -2.645518 3.400046 2.680910
v -1.017777 6.805586 2.680910
v 0.839543 6.733511 -5.865971
v 2.431857 3.327971 -5.865971
v 1.023864 6.819693 -5.865971
v 2.616178 3.414153 -5.865971
v 0.050828 8.104689 -5.854347
v 0.840061 6.733511 -5.854347
v 0.212967 8.198014 -5.854347
v 1.002201 6.826837 -5.854347
v 0.012495 8.104689 -5.851676
v -0.840061 6.733511 -5.851676
v -0.150086 8.205776 -5.851676
v -1.002642 6.834599 -5.851676
v -0.866982 6.733511 -5.847260
v -2.494723 3.327971 -5.847260
v -1.017777 6.805586 -5.847260
v -2.645518 3.400046 -5.847260
v 1.903620 5.160773 1.660857
v 1.782551 7.884382 1.660857
v 1.304176 5.134127 1.660857
v 1.183107 7.857736 1.660857
v 1.903620 5.160773 1.095898
v 1.782551 7.884382 1.095898
v 1.304176 5.134127 1.095898
v 1.183107 7.857736 1.095898
v 1.895118 8.104183 1.762488
v 1.050999 8.077538 1.762488
v 1.050999 8.077538 0.994267
v 1.895118 8.104183 0.994267
v 1.287242 8.084995 1.514900
v 1.267832 8.416651 1.514900
v 1.287242 8.084995 1.218302
v 1.267832 8.416651 1.218302
v 1.677937 8.097328 1.514900
v 1.658527 8.428984 1.514900
v 1.677937 8.097328 1.218302
v 1.658527 8.428984 1.218302
v -2.756262 -0.813128 -5.621185
v -2.756262 -0.813128 2.370570
v -2.756262 0.813128 2.370570
v -2.756262 0.813128 -5.621185
v -0.840061 -0.813128 2.579274
v -0.840061 0.813128 2.579274
v -2.494723 -0.813128 2.579274
v -2.494723 0.813128 2.579274
v 0.840061 -0.813128 -5.934342
v -0.840061 -0.813128 -5.934342
v 0.840061 0.813128 -5.934342
v -0.840061 0.813128 -5.934342
v 2.431857 0.813128 -5.934342
v 2.431857 -0.813128 -5.934342
v -2.494723 0.813128 -5.934342
v -2.494723 -0.813128 -5.934342
v 0.840061 -0.813128 -5.858928
v -0.840061 -0.813128 -5.858928
v 0.840061 0.813128 -5.858928
v -0.840061 0.813128 -5.858928
v 2.431857 0.813128 -5.858928
v 2.431857 -0.813128 -5.858928
v -2.494723 0.813128 -5.858928
v -2.494723 -0.813128 -5.858928
v 2.656849 0.813128 -5.621185
v 2.656849 -0.813128 -5.621185
v 2.656849 0.813128 2.370570
v 2.656849 -0.813128 2.370570
v 0.840061 2.852139 2.370570
v -0.840061 2.852139 2.370570
v 0.840061 2.852139 4.053404
v -0.840061 2.852139 4.053404
v 0.840061 4.256999 2.370570
v -0.840061 4.256999 2.370570
v 0.840061 4.256999 2.236266
v -0.840061 4.256999 2.236266
v 0.840061 2.984386 4.164764
v -0.840061 2.984386 4.164764
v 0.840061 4.389247 2.347626
v -0.840061 4.389247 2.347626
v 0.840061 2.709901 4.222322
v -0.840061 2.709901 4.222322
v 0.840061 2.842149 4.333682
v -0.840061 2.842149 4.333682
v 1.023905 2.852139 4.053404
v 1.023905 4.256999 2.236266
v 1.023905 2.984386 4.164764
v 1.023905 4.389247 2.347626
v 1.023905 2.709901 4.222322
v 1.023905 2.842149 4.333682
v -0.997297 4.256999 2.236266
v -0.997297 2.852139 4.053404
v -0.997297 4.389247 2.347626
v -0.997297 2.984386 4.164764
v -0.997297 2.842149 4.333682
v -0.997297 2.709901 4.222322
v -1.009893 -0.813128 2.370570
v -1.009893 0.813128 2.370570
v -1.009893 -0.813128 4.053404
v -1.009893 0.813128 4.053404
v -2.494723 -0.813128 2.572296
v -2.494723 0.813128 2.572296
v -2.756262 -0.813128 2.572296
v -2.756262 0.813128 2.572296
v -0.840061 -0.813128 4.247461
v -0.840061 0.813128 4.247461
v 0.840061 0.813128 4.247461
v 0.840061 -0.813128 4.247461
v -1.009893 -0.813128 4.247461
v -1.009893 0.813128 4.247461
v -2.494723 0.813128 -5.914810
v -2.494723 -0.813128 -5.914810
v -2.756262 0.813128 -5.914810
v -2.756262 -0.813128 -5.914810
v 2.431857 0.813128 -5.910704
v 2.431857 -0.813128 -5.910704
v 2.656849 0.813128 -5.910704
v 2.656849 -0.813128 -5.910704
vt 0.625000 0.500000
vt 0.625000 0.750000
vt 0.625000 0.750000
vt 0.625000 0.000000
vt 0.625000 0.000000
vt 0.625000 0.000000
vt 0.125000 0.750000
vt 0.125000 0.500000
vt 0.125000 0.500000
vt 0.375000 0.500000
vt 0.375000 0.750000
vt 0.625000 0.750000
vt 0.375000 0.500000
vt 0.625000 0.500000
vt 0.375000 0.750000
vt 0.125000 0.750000
vt 0.125000 0.750000
vt 0.625000 0.750000
vt 0.625000 0.750000
vt 0.625000 0.750000
vt 0.625000 0.750000
vt 0.625000 0.750000
vt 0.375000 0.750000
vt 0.375000 0.750000
vt 0.625000 0.500000
vt 0.625000 0.500000
vt 0.625000 0.250000
vt 0.625000 0.250000
vt 0.375000 0.750000
vt 0.625000 0.500000
vt 0.375000 0.750000
vt 0.375000 0.750000
vt 0.625000 0.750000
vt 0.375000 0.750000
vt 0.625000 0.750000
vt 0.375000 0.750000
vt 0.625000 0.750000
vt 0.375000 0.250000
vt 0.625000 0.250000
vt 0.625000 0.250000
vt 0.625000 0.500000
vt 0.375000 0.250000
vt 0.625000 0.000000
vt 0.625000 0.000000
vt 0.625000 0.250000
vt 0.625000 0.500000
vt 0.625000 0.750000
vt 0.625000 0.750000
vt 0.625000 0.750000
vt 0.625000 0.000000
vt 0.625000 0.250000
vt 0.625000 0.250000
vt 0.875000 0.750000
vt 0.875000 0.750000
vt 0.875000 0.750000
vt 0.875000 0.500000
vt 0.875000 0.500000
vt 0.625000 0.500000
vt 0.875000 0.750000
vt 0.625000 0.250000
vt 0.625000 0.250000
vt 0.625000 0.500000
vt 0.625000 0.500000
vt 0.625000 0.000000
vt 0.625000 0.000000
vt 0.875000 0.500000
vt 0.625000 0.750000
vt 0.625000 0.500000
vt 0.875000 0.750000
vt 0.625000 0.250000
vt 0.625000 0.750000
vt 0.625000 0.750000
vt 0.625000 0.750000
vt 0.625000 0.750000
vt 0.625000 0.500000
vt 0.625000 0.500000
vt 0.625000 0.750000
vt 0.625000 0.750000
vt 0.625000 0.500000
vt 0.625000 0.500000
vt 0.625000 0.000000
vt 0.625000 0.250000
vt 0.875000 0.500000
vt 0.875000 0.500000
vt 0.875000 0.500000
vt 0.875000 0.750000
vt 0.625000 0.000000
vt 0.875000 0.750000
vt 0.875000 0.500000
vt 0.875000 0.750000
vt 0.875000 0.750000
vt 0.875000 0.500000
vt 0.625000 0.750000
vt 0.625000 0.750000
vt 0.625000 0.750000
vt 0.625000 0.750000
vt 0.625000 0.750000
vt 0.625000 0.750000
vt 0.875000 0.750000
vt 0.875000 0.750000
vt 0.875000 0.750000
vt 0.625000 0.000000
vt 0.625000 0.000000
vt 0.875000 0.750000
vt 0.625000 0.000000
vt 0.625000 0.000000
vt 0.625000 0.500000
vt 0.625000 0.500000
vt 0.625000 0.500000
vt 0.625000 0.500000
vt 0.625000 0.500000
vt 0.625000 0.500000
vt 0.625000 0.250000
vt 0.625000 0.250000
vt 0.625000 0.250000
vt 0.875000 0.500000
vt 0.875000 0.500000
vt 0.625000 0.250000
vt 0.625000 0.250000
vt 0.625000 0.250000
vt 0.625000 0.250000
vt 0.375000 0.000000
vt 0.625000 0.250000
vt 0.375000 0.250000
vt 0.375000 0.500000
vt 0.625000 0.500000
vt 0.375000 0.750000
vt 0.625000 0.750000
vt 0.375000 1.000000
vt 0.125000 0.750000
vt 0.125000 0.500000
vt 0.625000 0.750000
vt 0.875000 0.500000
vt 0.625000 0.500000
vt 0.625000 0.000000
vt 0.625000 0.250000
vt 0.625000 1.000000
vt 0.625000 1.000000
vt 0.625000 0.000000
vt 0.375000 0.250000
vt 0.375000 0.000000
vt 0.625000 0.500000
vt 0.375000 0.500000
vt 0.375000 0.750000
vt 0.625000 0.750000
vt 0.375000 1.000000
vt 0.125000 0.750000
vt 0.125000 0.500000
vt 0.875000 0.500000
vt 0.625000 0.000000
vt 0.375000 0.250000
vt 0.375000 0.000000
vt 0.125000 0.750000
vt 0.125000 0.500000
vt 0.625000 0.000000
vt 0.375000 0.000000
vt 0.375000 0.000000
vt 0.375000 0.000000
vt 0.625000 0.000000
vt 0.375000 0.000000
vt 0.125000 0.750000
vt 0.375000 0.500000
vt 0.625000 0.500000
vt 0.375000 0.500000
vt 0.375000 0.500000
vt 0.125000 0.500000
vt 0.125000 0.500000
vt 0.125000 0.500000
vt 0.625000 0.250000
vt 0.625000 0.500000
vt 0.625000 0.250000
vt 0.375000 0.500000
vt 0.375000 0.250000
vt 0.625000 0.500000
vt 0.625000 0.250000
vt 0.375000 0.250000
vt 0.375000 0.750000
vt 0.375000 0.500000
vt 0.375000 0.500000
vt 0.625000 0.750000
vt 0.625000 1.000000
vt 0.625000 1.000000
vt 0.625000 0.750000
vt 0.625000 0.000000
vt 0.625000 1.000000
vt 0.875000 0.750000
vt 0.625000 0.750000
vt 0.625000 0.750000
vt 0.625000 0.000000
vt 0.625000 0.000000
vt 0.875000 0.750000
vt 0.625000 0.750000
vt 0.625000 1.000000
vt 0.625000 1.000000
vt 0.625000 0.750000
vt 0.625000 0.750000
vt 0.625000 1.000000
vt 0.625000 1.000000
vt 0.875000 0.750000
vt 0.625000 0.750000
vt 0.875000 0.750000
vt 0.875000 0.750000
vt 0.625000 0.750000
vt 0.625000 0.750000
vt 0.625000 0.750000
vt 0.625000 0.750000
vt 0.625000 0.750000
vt 0.625000 0.750000
vt 0.625000 0.000000
vt 0.625000 0.000000
vt 0.625000 0.000000
vt 0.625000 0.000000
vt 0.625000 0.000000
vt 0.625000 1.000000
vt 0.625000 0.000000
vt 0.625000 1.000000
vt 0.625000 1.000000
vt 0.375000 0.000000
vt 0.625000 0.000000
vt 0.125000 0.750000
vt 0.625000 0.000000
vt 0.375000 0.000000
vt 0.375000 0.000000
vt 0.625000 0.000000
vt 0.125000 0.750000
vt 0.125000 0.750000
vt 0.625000 0.750000
vt 0.375000 1.000000
vt 0.375000 0.750000
vt 0.625000 1.000000
vt 0.375000 1.000000
vt 0.375000 0.000000
vt 0.625000 0.000000
vt 0.125000 0.750000
vt 0.125000 0.750000
vt 0.375000 0.250000
vt 0.625000 0.250000
vt 0.625000 0.250000
vt 0.375000 0.250000
vt 0.125000 0.500000
vt 0.625000 0.500000
vt 0.375000 0.500000
vt 0.625000 0.500000
vt 0.625000 0.000000
vt 0.875000 0.500000
vt 0.875000 0.500000
vt 0.875000 0.750000
vt 0.625000 0.250000
vt 0.625000 0.000000
vt 0.875000 0.750000
vt 0.625000 0.250000
vt 0.625000 1.000000
vt 0.875000 0.750000
vt 0.125000 0.750000
vt 0.125000 0.500000
vt 0.875000 0.750000
vt 0.625000 0.000000
vt 0.625000 1.000000
vt 0.125000 0.750000
vt 0.625000 1.000000
vt 0.375000 0.000000
vt 0.125000 0.500000
vn 1.0000 0.0000 0.0000
vn 0.0000 1.0000 0.0000
vn 0.0000 -1.0000 0.0000
vn 0.0000 0.0000 1.0000
vn 0.3086 0.9512 0.0000
vn 0.0000 0.0000 -1.0000
vn 0.0000 0.9275 -0.3738
vn -1.0000 0.0000 0.0000
vn -0.4312 -0.9022 0.0000
vn -0.5280 -0.8492 0.0000
vn 0.4236 -0.9059 0.0000
vn -0.8667 -0.4989 0.0000
vn 0.9059 0.4236 0.0000
vn -0.4236 0.9059 0.0000
vn 0.8667 0.4989 0.0000
vn 0.4989 -0.8667 0.0000
vn -0.4989 0.8667 0.0000
vn -0.9022 0.4312 0.0000
vn 0.4312 0.9022 0.0000
vn -0.8492 0.5280 0.0000
vn 0.8492 -0.5280 0.0000
vn 0.5280 0.8492 0.0000
vn -0.9059 -0.4236 0.0000
vn 0.9022 -0.4312 0.0000
vn -0.9990 -0.0444 0.0000
vn 0.9990 0.0444 0.0000
vn 0.0444 -0.9990 0.0000
vn 0.0190 -0.4276 -0.9038
vn -0.0316 0.9995 0.0000
vn 0.0130 -0.4132 0.9106
vn 0.8901 -0.4558 0.0000
vn -0.8571 -0.5151 0.0000
vn -0.9983 -0.0584 0.0000
vn 0.9983 0.0584 0.0000
vn 0.0316 -0.9995 0.0000
vn 0.0000 -0.7649 -0.6441
vn 0.0000 0.7911 0.6116
vn 0.0000 0.7649 0.6441
vn 0.0000 0.6441 -0.7649
vn 0.0000 -0.6441 0.7649
vn 0.0000 -0.7911 -0.6116
vn 0.0130 -0.4132 -0.9106
vn 0.0190 -0.4276 0.9038
usemtl Material
s off
f 17/1/1 38/2/1 19/3/1
f 7/4/2 180/5/2 10/6/2
f 8/7/3 29/8/3 6/9/3
f 2/10/3 8/7/3 6/9/3
f 4/11/4 19/3/4 3/12/4
f 18/13/1 133/14/1 17/1/1
f 12/15/3 185/16/3 9/17/3
f 4/11/3 9/17/3 8/7/3
f 3/12/1 151/18/1 11/19/1
f 12/15/4 15/20/4 11/19/4
f 15/20/2 21/21/2 13/22/2
f 4/11/3 16/23/3 12/15/3
f 11/19/5 13/22/5 3/12/5
f 4/11/6 13/22/6 14/24/6
f 19/3/2 145/25/2 17/1/2
f 1/26/2 132/27/2 5/28/2
f 2/10/3 20/29/3 4/11/3
f 5/28/6 35/30/6 1/26/6
f 21/21/1 24/31/1 22/32/1
f 16/23/4 23/33/4 15/20/4
f 14/24/3 24/31/3 16/23/3
f 14/24/3 28/34/3 22/32/3
f 25/35/4 28/34/4 26/36/4
f 21/21/7 25/35/7 13/22/7
f 14/24/1 25/35/1 26/36/1
f 22/32/1 27/37/1 21/21/1
f 29/38/1 191/39/1 32/40/1
f 1/26/6 37/41/6 17/1/6
f 32/40/8 136/42/8 29/38/8
f 31/43/2 126/44/2 7/4/2
f 36/45/6 43/46/6 35/30/6
f 33/47/6 46/48/6 41/49/6
f 39/50/9 62/51/9 40/52/9
f 3/12/4 34/53/4 7/54/4
f 7/4/4 39/50/4 31/43/4
f 31/43/8 40/52/8 32/40/8
f 19/3/4 33/47/4 3/12/4
f 32/40/6 36/45/6 5/28/6
f 42/55/10 66/56/10 44/57/10
f 41/49/3 45/58/3 43/46/3
f 44/57/2 47/59/2 42/55/2
f 36/45/6 48/60/6 44/61/6
f 35/30/6 45/58/6 37/41/6
f 37/41/11 88/62/11 53/63/11
f 33/47/4 42/55/4 34/53/4
f 34/64/4 47/65/4 39/50/4
f 52/66/2 49/67/2 51/68/2
f 41/49/4 50/69/4 42/55/4
f 43/46/6 52/70/6 51/68/6
f 41/49/12 74/71/12 49/67/12
f 53/63/13 56/72/13 54/73/13
f 37/41/11 54/73/11 38/2/11
f 46/48/14 72/74/14 56/72/14
f 46/48/14 55/75/14 45/58/14
f 57/76/15 60/77/15 58/78/15
f 43/46/16 58/78/16 41/49/16
f 57/76/15 91/79/15 59/80/15
f 49/67/17 59/80/17 51/68/17
f 63/81/18 61/82/18 62/51/18
f 48/83/19 99/84/19 61/85/19
f 48/83/19 64/86/19 47/59/19
f 39/50/9 83/87/9 63/81/9
f 65/88/20 68/89/20 66/56/20
f 50/69/21 77/90/21 42/55/21
f 52/66/22 67/91/22 50/69/22
f 52/66/22 95/92/22 68/89/22
f 70/93/4 71/94/4 72/74/4
f 38/2/23 70/93/23 46/48/23
f 54/73/11 69/95/11 38/2/11
f 56/72/13 71/94/13 54/73/13
f 74/71/4 75/96/4 76/97/4
f 58/78/16 73/98/16 41/49/16
f 60/77/15 75/96/15 58/78/15
f 49/67/17 76/97/17 60/77/17
f 78/99/4 79/100/4 77/90/4
f 67/91/22 78/99/22 50/69/22
f 42/55/10 79/100/10 65/88/10
f 65/88/20 80/101/20 67/91/20
f 82/102/4 83/87/4 81/103/4
f 64/86/19 82/104/19 47/59/19
f 47/65/24 81/103/24 39/50/24
f 63/81/18 84/105/18 64/106/18
f 85/107/6 88/62/6 86/108/6
f 53/63/13 87/109/13 55/75/13
f 45/58/23 86/108/23 37/41/23
f 55/75/14 85/107/14 45/58/14
f 89/110/6 92/111/6 90/112/6
f 43/46/16 92/111/16 57/76/16
f 51/68/12 90/112/12 43/46/12
f 59/80/17 89/110/17 51/68/17
f 93/113/6 96/114/6 95/115/6
f 66/56/10 94/116/10 44/57/10
f 68/89/20 96/117/20 66/56/20
f 44/61/21 93/113/21 52/70/21
f 97/118/6 100/119/6 99/120/6
f 40/52/24 97/118/24 48/60/24
f 61/82/18 100/119/18 62/51/18
f 62/51/9 98/121/9 40/52/9
f 101/122/4 104/123/4 103/124/4
f 104/123/25 107/125/25 103/124/25
f 108/126/6 105/127/6 107/125/6
f 106/128/26 101/129/26 105/127/26
f 107/125/27 101/130/27 103/131/27
f 108/126/28 112/132/28 106/128/28
f 110/133/29 112/132/29 111/134/29
f 104/123/30 109/135/30 110/136/30
f 106/128/31 109/137/31 102/138/31
f 104/123/32 111/134/32 108/126/32
f 114/139/33 115/140/33 113/141/33
f 115/140/6 120/142/6 119/143/6
f 120/142/34 117/144/34 119/143/34
f 118/145/4 113/146/4 117/144/4
f 119/143/35 113/147/35 115/148/35
f 116/149/29 118/145/29 120/142/29
f 123/150/8 121/151/8 122/152/8
f 30/153/3 121/154/3 29/8/3
f 32/40/2 123/150/2 31/43/2
f 123/150/2 182/155/2 31/43/2
f 126/44/4 127/156/4 125/157/4
f 30/158/8 128/159/8 31/43/8
f 7/4/1 125/157/1 8/160/1
f 8/7/3 127/161/3 30/153/3
f 134/162/8 141/163/8 133/14/8
f 129/164/2 142/165/2 134/162/2
f 136/166/2 138/167/2 130/168/2
f 29/8/3 130/168/3 6/9/3
f 2/10/3 134/162/3 18/13/3
f 5/28/2 135/169/2 32/40/2
f 6/9/3 129/164/3 2/10/3
f 17/1/2 131/170/2 1/26/2
f 140/171/6 137/172/6 138/173/6
f 139/174/6 142/165/6 137/172/6
f 138/173/6 143/175/6 140/171/6
f 130/168/2 137/172/2 129/164/2
f 132/27/3 143/175/3 135/169/3
f 135/169/1 144/176/1 136/42/1
f 133/14/3 139/174/3 131/170/3
f 131/170/3 140/171/3 132/27/3
f 145/25/1 148/177/1 146/178/1
f 17/1/8 196/179/8 18/13/8
f 18/13/3 148/177/3 20/29/3
f 20/29/4 147/180/4 19/3/4
f 151/18/36 162/181/36 152/182/36
f 7/54/6 149/183/6 3/12/6
f 10/6/8 150/184/8 7/4/8
f 11/19/4 152/182/4 10/185/4
f 154/186/3 155/187/3 153/188/3
f 150/184/1 156/189/1 154/190/1
f 150/191/6 153/188/6 149/183/6
f 149/183/1 155/187/1 151/18/1
f 157/192/37 160/193/37 158/194/37
f 151/18/36 169/195/36 161/196/36
f 158/194/38 175/197/38 164/198/38
f 156/199/39 159/200/39 155/187/39
f 161/196/40 164/198/40 162/181/40
f 156/199/39 173/201/39 160/202/39
f 155/187/41 165/203/41 151/18/41
f 158/194/38 163/204/38 157/192/38
f 166/205/1 167/206/1 165/203/1
f 165/203/1 170/207/1 169/195/1
f 161/196/40 170/207/40 163/204/40
f 159/200/39 166/205/39 155/187/39
f 163/204/38 167/206/38 157/192/38
f 157/192/37 168/208/37 159/200/37
f 171/209/8 174/210/8 173/211/8
f 172/212/8 175/213/8 174/210/8
f 160/193/37 174/214/37 158/194/37
f 152/215/41 171/209/41 156/189/41
f 162/181/36 172/216/36 152/182/36
f 164/198/40 176/217/40 162/181/40
f 177/218/8 180/5/8 178/219/8
f 9/17/3 177/220/3 8/7/3
f 8/160/6 178/219/6 7/4/6
f 180/5/2 186/221/2 10/6/2
f 182/155/4 183/222/4 181/223/4
f 31/43/1 181/223/1 30/158/1
f 122/152/8 184/224/8 123/150/8
f 30/153/3 183/225/3 122/226/3
f 187/227/4 185/228/4 188/229/4
f 186/230/4 189/231/4 185/228/4
f 11/19/1 188/229/1 12/15/1
f 179/232/8 190/233/8 180/5/8
f 9/17/3 189/234/3 179/235/3
f 10/185/2 187/227/2 11/19/2
f 192/236/6 193/237/6 191/39/6
f 124/238/8 194/239/8 121/151/8
f 32/40/2 193/237/2 124/238/2
f 121/154/3 192/240/3 29/8/3
f 195/241/6 198/242/6 196/179/6
f 145/25/2 195/241/2 17/1/2
f 18/13/3 198/242/3 146/178/3
f 146/178/1 197/243/1 145/25/1
f 17/1/1 37/41/1 38/2/1
f 7/4/2 178/219/2 180/5/2
f 8/7/3 30/153/3 29/8/3
f 2/10/3 4/11/3 8/7/3
f 4/11/4 20/29/4 19/3/4
f 18/13/1 134/162/1 133/14/1
f 12/15/3 188/229/3 185/16/3
f 4/11/3 12/15/3 9/17/3
f 3/12/1 149/183/1 151/18/1
f 12/15/4 16/23/4 15/20/4
f 15/20/2 23/33/2 21/21/2
f 4/11/3 14/24/3 16/23/3
f 11/19/5 15/20/5 13/22/5
f 4/11/6 3/12/6 13/22/6
f 19/3/2 147/180/2 145/25/2
f 1/26/2 131/170/2 132/27/2
f 2/10/3 18/13/3 20/29/3
f 5/28/6 36/45/6 35/30/6
f 21/21/1 23/33/1 24/31/1
f 16/23/4 24/31/4 23/33/4
f 14/24/3 22/32/3 24/31/3
f 14/24/3 26/36/3 28/34/3
f 25/35/4 27/37/4 28/34/4
f 21/21/7 27/37/7 25/35/7
f 14/24/8 13/22/8 25/35/8
f 22/32/8 28/34/8 27/37/8
f 29/38/1 192/236/1 191/39/1
f 1/26/6 35/30/6 37/41/6
f 32/40/8 135/169/8 136/42/8
f 31/43/2 128/159/2 126/44/2
f 36/45/6 44/61/6 43/46/6
f 33/47/4 38/2/4 46/48/4
f 39/50/9 63/81/9 62/51/9
f 3/12/4 33/47/4 34/53/4
f 7/4/4 34/64/4 39/50/4
f 31/43/8 39/50/8 40/52/8
f 19/3/4 38/2/4 33/47/4
f 32/40/6 40/52/6 36/45/6
f 42/55/10 65/88/10 66/56/10
f 41/49/3 46/48/3 45/58/3
f 44/57/2 48/83/2 47/59/2
f 36/45/6 40/52/6 48/60/6
f 35/30/4 43/46/4 45/58/4
f 37/41/11 86/108/11 88/62/11
f 33/47/4 41/49/4 42/55/4
f 34/64/4 42/244/4 47/65/4
f 52/66/2 50/69/2 49/67/2
f 41/49/4 49/67/4 50/69/4
f 43/46/6 44/61/6 52/70/6
f 41/49/12 73/98/12 74/71/12
f 53/63/13 55/75/13 56/72/13
f 37/41/11 53/63/11 54/73/11
f 46/48/14 70/93/14 72/74/14
f 46/48/14 56/72/14 55/75/14
f 57/76/15 59/80/15 60/77/15
f 43/46/16 57/76/16 58/78/16
f 57/76/15 92/111/15 91/79/15
f 49/67/17 60/77/17 59/80/17
f 63/81/18 64/106/18 61/82/18
f 48/83/19 97/245/19 99/84/19
f 48/83/19 61/85/19 64/86/19
f 39/50/9 81/103/9 83/87/9
f 65/88/20 67/91/20 68/89/20
f 50/69/21 78/99/21 77/90/21
f 52/66/22 68/89/22 67/91/22
f 52/66/22 93/246/22 95/92/22
f 70/93/4 69/95/4 71/94/4
f 38/2/23 69/95/23 70/93/23
f 54/73/11 71/94/11 69/95/11
f 56/72/13 72/74/13 71/94/13
f 74/71/4 73/98/4 75/96/4
f 58/78/16 75/96/16 73/98/16
f 60/77/15 76/97/15 75/96/15
f 49/67/17 74/71/17 76/97/17
f 78/99/4 80/101/4 79/100/4
f 67/91/22 80/101/22 78/99/22
f 42/55/10 77/90/10 79/100/10
f 65/88/20 79/100/20 80/101/20
f 82/102/4 84/105/4 83/87/4
f 64/86/19 84/247/19 82/104/19
f 47/65/24 82/102/24 81/103/24
f 63/81/18 83/87/18 84/105/18
f 85/107/6 87/109/6 88/62/6
f 53/63/13 88/62/13 87/109/13
f 45/58/23 85/107/23 86/108/23
f 55/75/14 87/109/14 85/107/14
f 89/110/6 91/79/6 92/111/6
f 43/46/16 90/112/16 92/111/16
f 51/68/12 89/110/12 90/112/12
f 59/80/17 91/79/17 89/110/17
f 93/113/6 94/248/6 96/114/6
f 66/56/10 96/117/10 94/116/10
f 68/89/20 95/92/20 96/117/20
f 44/61/21 94/248/21 93/113/21
f 97/118/6 98/121/6 100/119/6
f 40/52/24 98/121/24 97/118/24
f 61/82/18 99/120/18 100/119/18
f 62/51/9 100/119/9 98/121/9
f 101/122/4 102/249/4 104/123/4
f 104/123/25 108/126/25 107/125/25
f 108/126/6 106/128/6 105/127/6
f 106/128/26 102/138/26 101/129/26
f 107/125/27 105/127/27 101/130/27
f 108/126/42 111/134/42 112/132/42
f 110/133/29 109/250/29 112/132/29
f 104/123/43 102/249/43 109/135/43
f 106/128/31 112/132/31 109/137/31
f 104/123/32 110/136/32 111/134/32
f 114/139/33 116/251/33 115/140/33
f 115/140/6 116/251/6 120/142/6
f 120/142/34 118/145/34 117/144/34
f 118/145/4 114/252/4 113/146/4
f 119/143/35 117/144/35 113/147/35
f 116/149/29 114/253/29 118/145/29
f 123/150/8 124/238/8 121/151/8
f 30/153/3 122/226/3 121/154/3
f 32/40/2 124/238/2 123/150/2
f 123/150/2 184/224/2 182/155/2
f 126/44/4 128/159/4 127/156/4
f 30/158/8 127/156/8 128/159/8
f 7/4/1 126/44/1 125/157/1
f 8/7/3 125/254/3 127/161/3
f 134/162/8 142/165/8 141/163/8
f 129/164/2 137/172/2 142/165/2
f 136/166/2 144/255/2 138/167/2
f 29/8/3 136/166/3 130/168/3
f 2/10/3 129/164/3 134/162/3
f 5/28/2 132/27/2 135/169/2
f 6/9/3 130/168/3 129/164/3
f 17/1/2 133/14/2 131/170/2
f 140/171/6 139/174/6 137/172/6
f 139/174/6 141/163/6 142/165/6
f 138/173/6 144/176/6 143/175/6
f 130/168/2 138/167/2 137/172/2
f 132/27/3 140/171/3 143/175/3
f 135/169/1 143/175/1 144/176/1
f 133/14/3 141/163/3 139/174/3
f 131/170/3 139/174/3 140/171/3
f 145/25/1 147/180/1 148/177/1
f 17/1/8 195/241/8 196/179/8
f 18/13/3 146/178/3 148/177/3
f 20/29/4 148/177/4 147/180/4
f 151/18/36 161/196/36 162/181/36
f 7/54/6 150/191/6 149/183/6
f 10/6/8 152/215/8 150/184/8
f 11/19/4 151/18/4 152/182/4
f 154/186/3 156/199/3 155/187/3
f 150/184/8 152/215/8 156/189/8
f 150/191/6 154/186/6 153/188/6
f 149/183/8 153/188/8 155/187/8
f 157/192/37 159/200/37 160/193/37
f 151/18/36 165/203/36 169/195/36
f 158/194/38 174/214/38 175/197/38
f 156/199/39 160/202/39 159/200/39
f 161/196/40 163/204/40 164/198/40
f 156/199/39 171/256/39 173/201/39
f 155/187/41 166/205/41 165/203/41
f 158/194/38 164/198/38 163/204/38
f 166/205/1 168/208/1 167/206/1
f 165/203/1 167/206/1 170/207/1
f 161/196/40 169/195/40 170/207/40
f 159/200/39 168/208/39 166/205/39
f 163/204/38 170/207/38 167/206/38
f 157/192/37 167/206/37 168/208/37
f 171/209/8 172/212/8 174/210/8
f 172/212/8 176/257/8 175/213/8
f 160/193/37 173/258/37 174/214/37
f 152/215/41 172/212/41 171/209/41
f 162/181/36 176/217/36 172/216/36
f 164/198/40 175/197/40 176/217/40
f 177/218/8 179/232/8 180/5/8
f 9/17/3 179/235/3 177/220/3
f 8/160/6 177/218/6 178/219/6
f 180/5/2 190/233/2 186/221/2
f 182/155/4 184/224/4 183/222/4
f 31/43/1 182/155/1 181/223/1
f 122/152/8 183/222/8 184/224/8
f 30/153/3 181/259/3 183/225/3
f 187/227/4 186/230/4 185/228/4
f 186/230/4 190/260/4 189/231/4
f 11/19/1 187/227/1 188/229/1
f 179/232/8 189/261/8 190/233/8
f 9/17/3 185/16/3 189/234/3
f 10/185/2 186/230/2 187/227/2
f 192/236/6 194/239/6 193/237/6
f 124/238/8 193/237/8 194/239/8
f 32/40/2 191/39/2 193/237/2
f 121/154/3 194/262/3 192/240/3
f 195/241/6 197/243/6 198/242/6
f 145/25/2 197/243/2 195/241/2
f 18/13/3 196/179/3 198/242/3
f 146/178/1 198/242/1 197/243/1
